<svg xmlns="http://www.w3.org/2000/svg" viewBox="0 0 376.19 80.46"><defs><style>.cls-1{fill:#fff;}.cls-2,.cls-3{fill:#ee7252;}.cls-3{stroke:#1d1d1b;stroke-miterlimit:10;stroke-width:0.25px;}</style></defs><g id="Layer_2" data-name="Layer 2"><g id="Layer_1-2" data-name="Layer 1"><path class="cls-1" d="M162.17,22.75a.5.5,0,0,1-.5-.5v-6.7a2.62,2.62,0,0,0-.21-1L155.15.87a.3.3,0,0,1,.29-.46h5.32a.75.75,0,0,1,.67.47l1.31,3.74c.1.25.24.68.33.94,0,0,.39,1.2.67,2l.69,2a1.32,1.32,0,0,0,.23.47,1.11,1.11,0,0,0,.24-.47s.42-1.24.71-2,.71-2,.71-2l.33-.94L168,.88a.75.75,0,0,1,.66-.47h5.19a.3.3,0,0,1,.29.46L167.79,14.6a2.83,2.83,0,0,0-.2,1v6.7a.5.5,0,0,1-.5.5Z"/><path class="cls-1" d="M205.87,23.17q-4.67,0-7-2.75T196.59,12V.91a.51.51,0,0,1,.5-.5H202a.5.5,0,0,1,.5.5V12.65a8,8,0,0,0,.81,4.21,2.85,2.85,0,0,0,2.56,1.22,3,3,0,0,0,2.6-1.22,7.79,7.79,0,0,0,.84-4.21V.91a.5.5,0,0,1,.5-.5h4.7a.5.5,0,0,1,.5.5V12c0,3.8-.73,6.62-2.21,8.46S209,23.17,205.87,23.17Z"/><path class="cls-1" d="M247.18,23.17a13.19,13.19,0,0,1-4.36-.8,12.1,12.1,0,0,1-3.71-2.07.52.52,0,0,1-.06-.72l2.74-3.3a.5.5,0,0,1,.68-.08,11.73,11.73,0,0,0,2.22,1.28,6.69,6.69,0,0,0,2.63.6,3.57,3.57,0,0,0,1.94-.41,1.35,1.35,0,0,0,.6-1.17,1.32,1.32,0,0,0-.8-1.21q-.81-.4-2.22-1l-2.78-1.17a8.25,8.25,0,0,1-3.15-2.26,5.82,5.82,0,0,1-1.36-4,6.09,6.09,0,0,1,1.07-3.49A7.62,7.62,0,0,1,243.56,1,9.43,9.43,0,0,1,247.87,0a11.16,11.16,0,0,1,3.9.74A10,10,0,0,1,255,2.67a.5.5,0,0,1,.05.69l-2.38,3a.48.48,0,0,1-.66.1,10.41,10.41,0,0,0-1.8-.94,6.1,6.1,0,0,0-2.29-.41,3.32,3.32,0,0,0-1.7.37,1.25,1.25,0,0,0-.64,1.14,1.34,1.34,0,0,0,.9,1.22c.59.29,1.39.62,2.4,1l2.72,1.07a7.38,7.38,0,0,1,3.23,2.3A6.15,6.15,0,0,1,255.91,16a6.6,6.6,0,0,1-1,3.52,7.36,7.36,0,0,1-3,2.63A10.45,10.45,0,0,1,247.18,23.17Z"/><path class="cls-1" d="M277.49,22.1,284,.77a.5.5,0,0,1,.48-.36h6.4a.5.5,0,0,1,.48.36l6.5,21.33a.5.5,0,0,1-.48.65h-5.18a.51.51,0,0,1-.49-.39l-.92-4a.49.49,0,0,0-.48-.39h-5.46a.49.49,0,0,0-.49.39l-.92,4a.5.5,0,0,1-.49.39h-5A.5.5,0,0,1,277.49,22.1Zm8.39-10.21-.38,1.55h4.13l-.38-1.55c-.27-1.08-.55-2.24-.82-3.5s-.55-2.46-.83-3.58h-.14c-.23,1.12-.48,2.32-.75,3.58S286.16,10.81,285.88,11.89Z"/><path class="cls-1" d="M320.8,22.26V.91a.5.5,0,0,1,.5-.5h13.58a.49.49,0,0,1,.49.5v4a.49.49,0,0,1-.49.49h-7.67a.5.5,0,0,0-.5.5V9.13a.49.49,0,0,0,.5.49h6.43a.51.51,0,0,1,.5.5v4a.5.5,0,0,1-.5.49h-6.43a.5.5,0,0,0-.5.5v7.19a.49.49,0,0,1-.49.49H321.3A.49.49,0,0,1,320.8,22.26Z"/><path class="cls-1" d="M164.49,74.41a13.12,13.12,0,0,1-4.36-.79,11.92,11.92,0,0,1-3.71-2.08.51.51,0,0,1-.06-.71l2.74-3.31a.5.5,0,0,1,.68-.07A11.68,11.68,0,0,0,162,68.72a6.65,6.65,0,0,0,2.63.6,3.48,3.48,0,0,0,1.94-.41,1.33,1.33,0,0,0,.6-1.17,1.3,1.3,0,0,0-.8-1.2,22.52,22.52,0,0,0-2.22-1l-2.79-1.17a8.24,8.24,0,0,1-3.14-2.27,5.75,5.75,0,0,1-1.36-4,6.07,6.07,0,0,1,1.07-3.49,7.64,7.64,0,0,1,2.94-2.51,9.4,9.4,0,0,1,4.31-.94,11.15,11.15,0,0,1,3.9.73,10.2,10.2,0,0,1,3.18,1.93.52.52,0,0,1,.05.69l-2.38,3a.51.51,0,0,1-.67.1,10.49,10.49,0,0,0-1.8-.95,6.25,6.25,0,0,0-2.28-.41,3.32,3.32,0,0,0-1.7.38,1.22,1.22,0,0,0-.64,1.13,1.33,1.33,0,0,0,.9,1.22q.88.44,2.4,1l2.72,1.06a7.38,7.38,0,0,1,3.23,2.31,6.1,6.1,0,0,1,1.13,3.81,6.57,6.57,0,0,1-1,3.52,7.25,7.25,0,0,1-3,2.63A10.25,10.25,0,0,1,164.49,74.41Z"/><path class="cls-1" d="M194.8,73.35,201.3,52a.5.5,0,0,1,.48-.35h6.4a.5.5,0,0,1,.48.35l6.5,21.34a.5.5,0,0,1-.48.65H209.5a.51.51,0,0,1-.49-.39l-.92-4a.5.5,0,0,0-.49-.38h-5.45a.5.5,0,0,0-.49.38l-.92,4a.5.5,0,0,1-.49.39h-5A.5.5,0,0,1,194.8,73.35Zm8.39-10.21-.38,1.54h4.13l-.38-1.54c-.28-1.08-.55-2.25-.83-3.51s-.55-2.45-.82-3.57h-.14q-.35,1.68-.75,3.57C203.74,60.89,203.47,62.06,203.19,63.14Z"/><path class="cls-1" d="M238.11,73.5V52.16a.5.5,0,0,1,.5-.5h6.1a15,15,0,0,1,6,1.12,8.44,8.44,0,0,1,4,3.55,12.39,12.39,0,0,1,1.45,6.39,12.68,12.68,0,0,1-1.45,6.45,8.78,8.78,0,0,1-4,3.66A13.41,13.41,0,0,1,245.05,74h-6.44A.5.5,0,0,1,238.11,73.5ZM244,69.26h.34a7.47,7.47,0,0,0,2.93-.56,4.21,4.21,0,0,0,2.08-2,8.58,8.58,0,0,0,.77-4,8.19,8.19,0,0,0-.77-4,4,4,0,0,0-2.08-1.86,8.26,8.26,0,0,0-2.93-.5H244Z"/><path class="cls-1" d="M280.8,73.5V52.16a.5.5,0,0,1,.5-.5h6.09a15,15,0,0,1,6,1.12,8.46,8.46,0,0,1,4,3.55,12.49,12.49,0,0,1,1.44,6.39,12.78,12.78,0,0,1-1.44,6.45,8.78,8.78,0,0,1-3.95,3.66A13.47,13.47,0,0,1,287.74,74H281.3A.5.5,0,0,1,280.8,73.5Zm5.91-4.24h.34A7.38,7.38,0,0,0,290,68.7a4.17,4.17,0,0,0,2.08-2,8.44,8.44,0,0,0,.78-4,8.06,8.06,0,0,0-.78-4A4,4,0,0,0,290,56.9a8.17,8.17,0,0,0-2.92-.5h-.34Z"/><path class="cls-1" d="M323.48,73.49V52.16a.5.5,0,0,1,.51-.5h4.9a.5.5,0,0,1,.5.5V73.49a.5.5,0,0,1-.5.51H324A.51.51,0,0,1,323.48,73.49Z"/><path class="cls-1" d="M371.94,80.46a10.91,10.91,0,0,1-6.34-1.79,11.35,11.35,0,0,1-3.88-4.52.11.11,0,0,0-.07-.06,9.07,9.07,0,0,1-5.55-3.74,12.87,12.87,0,0,1-2.1-7.63,13.57,13.57,0,0,1,1.31-6.23,9.11,9.11,0,0,1,3.64-3.9,11.67,11.67,0,0,1,10.86,0,9.11,9.11,0,0,1,3.64,3.9,13.44,13.44,0,0,1,1.31,6.23A13.15,13.15,0,0,1,372.92,70a9.18,9.18,0,0,1-4.84,3.85A.11.11,0,0,0,368,74a4.24,4.24,0,0,0,2,1.37,8.61,8.61,0,0,0,2.6.42,7.51,7.51,0,0,0,1.37-.12,7.69,7.69,0,0,0,1.17-.29l1,4.17a.13.13,0,0,1-.06.14,7.28,7.28,0,0,1-1.67.54A11.82,11.82,0,0,1,371.94,80.46ZM364.38,69.6a3.61,3.61,0,0,0,3.18-1.79,9.38,9.38,0,0,0,1.15-5.09,8.61,8.61,0,0,0-1-4.47,4,4,0,0,0-4.56-1.74A3.73,3.73,0,0,0,361.22,58a8.15,8.15,0,0,0-1.17,4.72,9.28,9.28,0,0,0,1.17,5.09A3.61,3.61,0,0,0,364.38,69.6Z"/><path class="cls-2" d="M21.22,72.72v-24a.54.54,0,0,0,0-.21L.05,2.64A.5.5,0,0,1,.5,1.92H19.55a.51.51,0,0,1,.47.34l5.15,14.58c.88,2.71,1.75,5.34,2.63,7.9s1.79,5.23,2.74,8H31q1.43-4.17,2.8-8c.91-2.56,1.85-5.19,2.8-7.9L41.72,2.26a.51.51,0,0,1,.48-.34H60.8a.51.51,0,0,1,.46.72L40.13,48.55a.52.52,0,0,0,0,.21v24a.51.51,0,0,1-.51.51H21.72A.5.5,0,0,1,21.22,72.72Z"/><path class="cls-2" d="M88.79,74.54A42.33,42.33,0,0,1,74.86,72a38.74,38.74,0,0,1-12.68-7.35.51.51,0,0,1,0-.71L72.25,51.77a.49.49,0,0,1,.69-.07,36.12,36.12,0,0,0,7.9,4.69,21.19,21.19,0,0,0,8.39,1.92q4.27,0,6.2-1.32a4.26,4.26,0,0,0,1.92-3.73,4.15,4.15,0,0,0-2.58-3.84q-2.58-1.32-7.07-3.07l-8.89-3.73a26.53,26.53,0,0,1-10-7.24q-4.33-4.93-4.33-12.62a19.31,19.31,0,0,1,3.4-11.13,24.29,24.29,0,0,1,9.38-8A30.14,30.14,0,0,1,91,.61,35.46,35.46,0,0,1,103.44,3a31.75,31.75,0,0,1,10.9,6.87.5.5,0,0,1,0,.68l-8.85,11.12a.5.5,0,0,1-.68.1,33.88,33.88,0,0,0-6.58-3.57A19.69,19.69,0,0,0,91,16.84a10.5,10.5,0,0,0-5.43,1.21,3.93,3.93,0,0,0-2,3.62q0,2.52,2.85,3.89t7.68,3.24l8.66,3.4A23.41,23.41,0,0,1,113,39.55q3.61,4.71,3.62,12.17A20.9,20.9,0,0,1,113.42,63a23.24,23.24,0,0,1-9.49,8.39A33.08,33.08,0,0,1,88.79,74.54Z"/><rect class="cls-3" x="135.08" y="0.61" width="1.93" height="73.83" rx="0.3"/></g></g></svg>