<?xml version="1.0" encoding="UTF-8"?><svg id="Layer_2" xmlns="http://www.w3.org/2000/svg" viewBox="0 0 284.09 284.09"><defs><style>.cls-1{fill:none;stroke:#ed7252;stroke-miterlimit:10;stroke-width:5px;}.cls-2{fill:#2f2a2a;}</style></defs><g id="Layer_1-2"><g><path class="cls-2" d="M106.64,177.19v-23.96c0-.07-.02-.14-.05-.21l-21.13-45.92c-.15-.33,.09-.71,.46-.71h19.04c.21,0,.4,.13,.47,.34l5.15,14.58c.88,2.71,1.76,5.34,2.63,7.9,.88,2.56,1.79,5.23,2.74,8.01h.44c.95-2.78,1.88-5.45,2.8-8.01,.91-2.56,1.85-5.19,2.8-7.9l5.15-14.58c.07-.2,.26-.34,.47-.34h18.6c.37,0,.61,.38,.46,.71l-21.13,45.92c-.03,.07-.05,.14-.05,.21v23.96c0,.28-.23,.5-.5,.5h-17.86c-.28,0-.5-.23-.5-.5Z"/><path class="cls-2" d="M174.21,179.01c-4.46,0-9.1-.84-13.93-2.52-4.67-1.63-8.9-4.08-12.68-7.35-.21-.18-.23-.5-.06-.71l10.12-12.19c.17-.21,.48-.24,.69-.07,2.45,1.91,5.09,3.47,7.9,4.69,2.96,1.28,5.76,1.92,8.39,1.92,2.85,0,4.92-.44,6.2-1.32,1.28-.88,1.92-2.12,1.92-3.73s-.86-2.96-2.58-3.84c-1.72-.88-4.08-1.9-7.08-3.07l-8.89-3.73c-3.8-1.54-7.15-3.95-10.04-7.24-2.89-3.29-4.33-7.5-4.33-12.62,0-4.09,1.13-7.81,3.4-11.13,2.27-3.33,5.39-6,9.38-8.01,3.98-2.01,8.57-3.02,13.77-3.02,4.09,0,8.24,.79,12.45,2.36,4.06,1.52,7.7,3.81,10.91,6.86,.19,.18,.21,.48,.05,.69l-8.85,11.12c-.16,.21-.46,.24-.68,.1-2.27-1.55-4.47-2.74-6.58-3.57-2.23-.88-4.66-1.32-7.29-1.32-2.27,0-4.08,.4-5.43,1.21-1.35,.81-2.03,2.01-2.03,3.62s.95,2.98,2.85,3.89c1.9,.92,4.46,1.99,7.68,3.24l8.67,3.4c4.46,1.75,7.9,4.21,10.31,7.35,2.41,3.15,3.62,7.2,3.62,12.18,0,4.02-1.08,7.77-3.24,11.24-2.16,3.47-5.32,6.27-9.49,8.39s-9.21,3.18-15.14,3.18Z"/><rect class="cls-1" x="44.1" y="44.1" width="195.88" height="195.88" transform="translate(-58.84 142.05) rotate(-45)"/></g></g></svg>